# xmcd
#
# Track frame offsets: 
#        150
#        20281
#        37972
#
# Disc length: 772 seconds
#
# Revision: 1
# Processed by: cddbd v1.5.2PL0 Copyright (c) Steve Scherf et al.
# Submitted via: ExactAudioCopy v1.0b3
#
DISCID=16030203
DTITLE=SCANDAL - Stamp!
DYEAR=2005
DGENRE=JPop
TTITLE0=Stamp!
TTITLE1=Flashback No.5
TTITLE2=Stamp! (Instrumental)
EXTD=
EXTT0=
EXTT1=
EXTT2=
PLAYORDER=
